<?xml version="1.0" encoding="utf-8"?>
<!-- Generator: Adobe Illustrator 16.0.4, SVG Export Plug-In . SVG Version: 6.00 Build 0)  -->
<!DOCTYPE svg PUBLIC "-//W3C//DTD SVG 1.1//EN" "http://www.w3.org/Graphics/SVG/1.1/DTD/svg11.dtd" [
	<!ENTITY ns_flows "http://ns.adobe.com/Flows/1.0/">
	<!ENTITY ns_extend "http://ns.adobe.com/Extensibility/1.0/">
	<!ENTITY ns_ai "http://ns.adobe.com/AdobeIllustrator/10.0/">
	<!ENTITY ns_graphs "http://ns.adobe.com/Graphs/1.0/">
]>
<svg version="1.1" id="Capa_1" xmlns:x="&ns_extend;" xmlns:i="&ns_ai;" xmlns:graph="&ns_graphs;"
	 xmlns="http://www.w3.org/2000/svg" xmlns:xlink="http://www.w3.org/1999/xlink" xmlns:a="http://ns.adobe.com/AdobeSVGViewerExtensions/3.0/"
	 x="0px" y="0px" width="268.534px" height="58.92px" viewBox="0 0 268.534 58.92" enable-background="new 0 0 268.534 58.92"
	 xml:space="preserve">
<g>
	<path fill-rule="evenodd" clip-rule="evenodd" d="M6.438,5.48v19.478h11.269c4.511,0,7.972-1.054,10.381-3.143
		c2.098-1.774,3.147-4.021,3.147-6.758c0-6.385-3.653-9.577-10.949-9.577H6.438z M6.438,30.43v22.214h12.073
		c9.448,0,14.17-3.491,14.17-10.464c0-3.648-1.368-6.518-4.104-8.607c-2.74-2.098-6.417-3.143-11.028-3.143H6.438z M0,58.116V0
		h21.413c4.934,0,8.88,1.368,11.833,4.112c2.952,2.736,4.428,6.145,4.428,10.215c0,6.658-3.279,11.119-9.817,13.358l0.083,0.166
		c3.267,0.804,5.949,2.554,8.043,5.231c2.089,2.687,3.134,5.821,3.134,9.42c0,10.414-7.023,15.613-21.086,15.613H0z"/>
	<path fill-rule="evenodd" clip-rule="evenodd" d="M54.141,33.332h21.251c0-3.922-0.883-7.048-2.653-9.386
		c-1.771-2.33-4.212-3.499-7.322-3.499c-3.437,0-6.106,1.152-8.01,3.457C55.5,26.21,54.414,29.353,54.141,33.332z M77.971,46.848
		l4.502,2.33c-1.716,3.01-3.537,5.24-5.464,6.683c-2.848,2.04-6.393,3.06-10.63,3.06c-5.099,0-9.278-1.708-12.554-5.148
		c-3.76-3.864-5.634-9.387-5.634-16.584c0-6.708,1.542-12.006,4.626-15.887c3.084-3.896,7.23-5.846,12.434-5.846
		c4.672,0,8.424,1.501,11.268,4.511c3.114,3.316,4.668,8.159,4.668,14.485v3.872H53.987c0,4.553,1.189,8.309,3.582,11.219
		c2.384,2.928,5.323,4.387,8.81,4.387C71.479,53.929,75.338,51.565,77.971,46.848z"/>
	<path fill-rule="evenodd" clip-rule="evenodd" d="M90.852,58.116V16.26h5.796v8.292h0.162c1.712-3.061,3.511-5.266,5.39-6.601
		c2.201-1.551,4.934-2.33,8.213-2.33v5.796c-3.487,0.05-6.335,1.261-8.532,3.623c-2.044,2.09-3.785,5.39-5.232,9.893v23.184H90.852z
		"/>
	<path fill-rule="evenodd" clip-rule="evenodd" d="M113.978,50.96l4.589-3.466c3.01,4.287,7.006,6.435,11.994,6.435
		c2.956,0,5.236-0.722,6.845-2.173c1.443-1.235,2.173-2.818,2.173-4.742c0-2.853-2.148-5.05-6.443-6.601
		c-3.914-1.343-7.835-2.687-11.75-4.029c-4.245-2.09-6.281-5.307-6.119-9.66c0.108-3.59,1.418-6.385,3.947-8.366
		c2.521-1.981,5.817-2.952,9.9-2.902c2.736,0.05,5.456,0.771,8.167,2.131c2.711,1.377,4.759,3.102,6.156,5.19l-4.025,3.541
		c-3.213-3.905-6.816-5.87-10.783-5.87c-5.042,0-7.566,2.072-7.566,6.202c0,2.412,2.094,4.336,6.281,5.787
		c7.351,2.471,11.268,3.839,11.749,4.104c4.183,2.305,6.277,5.696,6.277,10.149c0,3.863-1.497,6.923-4.506,9.17
		c-2.687,2.04-6.062,3.06-10.141,3.06C123.534,58.92,117.949,56.267,113.978,50.96z"/>
	<path fill-rule="evenodd" clip-rule="evenodd" d="M154.984,0h5.796v21.897h0.157c3.818-4.295,7.947-6.442,12.404-6.442
		c3.434,0,6.228,0.921,8.367,2.736c2.471,2.147,3.701,5.315,3.701,9.494v30.431h-5.791V27.852c0-4.942-2.28-7.404-6.846-7.404
		c-4.021,0-8.018,2.114-11.993,6.359v31.31h-5.796V0z"/>
	<polygon fill-rule="evenodd" clip-rule="evenodd" points="199.302,58.116 199.302,0 205.099,0 205.099,37.429 222.117,16.26 
		229.166,16.26 216.848,31.715 230.774,58.116 223.937,58.116 212.827,36.707 205.099,45.562 205.099,58.116 	"/>
	<path fill-rule="evenodd" clip-rule="evenodd" d="M261.764,47.014V35.496c-13.196,2.313-19.801,6.311-19.801,11.998
		c0,1.824,0.722,3.35,2.177,4.577c1.447,1.244,3.026,1.857,4.742,1.857c2.049,0,4.271-0.655,6.684-1.965
		C257.979,50.646,260.048,48.995,261.764,47.014z M242.441,26.964l-5.066-2.653c3.275-5.903,8.507-8.855,15.695-8.855
		c4.025,0,7.322,0.945,9.904,2.819c3.064,2.247,4.59,5.497,4.59,9.743v21.094c0,3.532,0.323,6.534,0.97,9.005h-5.966l-0.643-5.788
		c-3.967,4.395-8.582,6.592-13.843,6.592c-3.387,0-6.173-0.962-8.37-2.894c-2.363-2.098-3.541-4.967-3.541-8.615
		c0-4.561,1.924-8.126,5.792-10.704c3.864-2.579,10.46-4.693,19.801-6.36v-2.255c0-5.091-2.869-7.645-8.61-7.645
		C247.734,20.447,244.166,22.619,242.441,26.964z"/>
</g>
</svg>
