<svg id="Capa_1" data-name="Capa 1" xmlns="http://www.w3.org/2000/svg" viewBox="0 0 85 86.9"><title>chat</title><path stroke="#FFFFFF" fill="#FFFFFF" d="M52,6.5A42.7,42.7,0,0,0,9.5,49.2a43.47,43.47,0,0,0,2.9,15.5,37.69,37.69,0,0,0,5.9,10.5L12.6,88.8a3.31,3.31,0,0,0,3.1,4.6H16l22-3.9A39,39,0,0,0,52,92,42.7,42.7,0,0,0,94.5,49.3C94.5,25.8,75.4,6.5,52,6.5ZM25.1,76.1a3.21,3.21,0,0,0-.5-3.4,35.42,35.42,0,0,1-8.5-23.4A36,36,0,0,1,52,13.1a36.2,36.2,0,0,1,0,72.4,37.8,37.8,0,0,1-12.5-2.2,3.15,3.15,0,0,0-1.7-.1L21,86.1Z" transform="translate(-9.5 -6.5)"/></svg>